<?xml version="1.0" standalone="no"?>
<!DOCTYPE svg PUBLIC "-//W3C//DTD SVG 20010904//EN"
 "http://www.w3.org/TR/2001/REC-SVG-20010904/DTD/svg10.dtd">
<svg version="1.0" xmlns="http://www.w3.org/2000/svg"
 width="512.000000pt" height="512.000000pt" viewBox="0 0 512.000000 512.000000"
 preserveAspectRatio="xMidYMid meet">

<g transform="translate(0.000000,512.000000) scale(0.100000,-0.100000)"
fill="#000000" stroke="none">
<path d="M345 4646 c-84 -21 -147 -57 -211 -121 -65 -65 -105 -136 -123 -223
-16 -75 -15 -1610 0 -1684 37 -172 175 -310 347 -347 75 -16 4328 -16 4404 0
170 36 311 178 347 347 16 75 15 1611 0 1684 -37 172 -176 311 -347 347 -81
17 -4349 14 -4417 -3z m3495 -906 c45 -23 80 -80 80 -130 0 -76 -74 -150 -151
-150 -46 0 -108 39 -130 82 -37 72 -14 151 57 194 48 29 92 30 144 4z m600 0
c45 -23 80 -80 80 -130 0 -76 -74 -150 -151 -150 -46 0 -108 39 -130 82 -37
72 -14 151 57 194 48 29 92 30 144 4z m0 -600 c45 -23 80 -80 80 -130 0 -50
-35 -107 -80 -130 -39 -20 -55 -20 -1881 -20 l-1841 0 -40 22 c-101 57 -102
194 -2 254 l39 24 1843 0 c1827 0 1843 0 1882 -20z"/>
<path d="M1288 1939 c-67 -35 -75 -65 -81 -299 -6 -240 -22 -321 -92 -466 -90
-185 -215 -314 -418 -428 -110 -62 -116 -203 -11 -263 54 -31 100 -29 170 8
321 171 546 472 630 844 10 46 17 144 21 285 5 207 5 218 -16 258 -38 75 -127
102 -203 61z"/>
<path d="M1888 1939 c-23 -12 -46 -35 -58 -59 -19 -38 -20 -58 -20 -670 0
-612 1 -632 20 -670 23 -45 80 -80 130 -80 50 0 107 35 130 80 19 38 20 58 20
670 0 612 -1 632 -20 670 -37 73 -127 99 -202 59z"/>
<path d="M2488 1939 c-23 -12 -46 -35 -58 -59 -19 -38 -20 -58 -20 -670 0
-612 1 -632 20 -670 23 -45 80 -80 130 -80 50 0 107 35 130 80 19 38 20 58 20
670 0 612 -1 632 -20 670 -37 73 -127 99 -202 59z"/>
<path d="M3088 1939 c-23 -12 -46 -35 -58 -59 -19 -38 -20 -58 -20 -670 0
-612 1 -632 20 -670 23 -45 80 -80 130 -80 50 0 107 35 130 80 19 38 20 58 20
670 0 612 -1 632 -20 670 -37 73 -127 99 -202 59z"/>
<path d="M3688 1939 c-67 -35 -78 -72 -78 -268 0 -282 32 -437 130 -636 69
-138 134 -229 241 -335 122 -122 310 -240 379 -240 76 0 150 73 150 148 0 62
-33 107 -112 153 -241 140 -395 338 -459 591 -17 66 -22 124 -26 288 -6 236
-14 265 -83 300 -49 25 -94 25 -142 -1z"/>
</g>
</svg>
