<?xml version="1.0" encoding="UTF-8" standalone="no"?>
<!DOCTYPE svg PUBLIC "-//W3C//DTD SVG 1.1//EN" "http://www.w3.org/Graphics/SVG/1.1/DTD/svg11.dtd">
<svg width="100%" height="100%" viewBox="0 0 200 200" version="1.1" xmlns="http://www.w3.org/2000/svg" xmlns:xlink="http://www.w3.org/1999/xlink" xml:space="preserve" xmlns:serif="http://www.serif.com/" style="fill-rule:evenodd;clip-rule:evenodd;stroke-linejoin:round;stroke-miterlimit:2;">
    <path d="M84.939,175.098C79.998,173.006 82.295,169.358 84.011,167.128C94.704,153.236 105.723,139.595 116.653,125.885C120.419,121.161 124.552,116.694 127.962,111.729C132.959,104.453 132.847,94.831 124.707,85.299C118.92,78.523 113.491,71.439 107.947,64.457C100.365,54.91 92.77,45.372 85.301,35.737C82.802,32.512 80.085,29.042 85.055,24.998C96.362,24.998 108.187,25.322 119.981,24.859C125.719,24.634 129.384,27.333 132.539,31.193C141.817,42.548 150.973,54.006 160.034,65.535C166.514,73.779 173.178,81.926 178.986,90.634C183.656,97.635 183.178,107.24 177.495,113.448C170.546,121.039 164.483,129.446 158.11,137.557C148.801,149.403 139.661,161.384 130.167,173.079C128.843,174.71 121.651,176.924 84.939,175.098Z" style="fill:rgb(23,188,210);fill-rule:nonzero;"/>
    <path d="M54.854,151.212C54.854,151.212 31.763,123.378 20.298,109.387C16.596,104.869 17.698,93.875 21.782,89.026C30.751,78.376 39.639,67.657 48.566,56.971C50.425,54.746 52.306,52.54 54.178,50.326C60.622,42.705 68.037,42.641 74.732,50.267C78.2,54.217 81.54,58.283 84.837,62.377C88.368,66.761 88.139,69.753 84.53,74.018C79.857,79.542 75.497,85.335 70.715,90.76C66.456,95.592 67.083,106.461 71.474,111.903C75.588,117.002 79.796,122.029 84.09,126.977C88.519,132.078 88.69,134.849 84.331,140.134C80.585,144.675 76.987,149.383 72.838,153.533C68.195,158.178 61.676,159.823 54.854,151.212Z" style="fill:rgb(46,177,76);fill-rule:nonzero;"/>
</svg>
